<?xml version="1.0" encoding="UTF-8" standalone="no" ?>
<!DOCTYPE svg PUBLIC "-//W3C//DTD SVG 1.1//EN" "http://www.w3.org/Graphics/SVG/1.1/DTD/svg11.dtd">
<svg xmlns="http://www.w3.org/2000/svg" xmlns:xlink="http://www.w3.org/1999/xlink" version="1.1" width="1024" height="1024" viewBox="0 0 1024 1024" xml:space="preserve">
<desc>Created with Fabric.js 3.6.3 from SF Symbols arrow.up.right.and.arrow.down.left.rectangle thin</desc>
<defs>
</defs>
<g transform="matrix(5.47 0 0 5.47 508.97 509.97)" id="Thin-L"  >
<path style="stroke: none; stroke-width: 1; stroke-dasharray: none; stroke-linecap: butt; stroke-dashoffset: 0; stroke-linejoin: miter; stroke-miterlimit: 4; fill: rgb(0,0,0); fill-rule: nonzero; opacity: 1;"  transform=" translate(-88.99, 35.11)" d="M 32.666 20.3613 L 145.312 20.3613 C 156.201 20.3613 161.914 14.4531 161.914 3.75977 L 161.914 -73.9746 C 161.914 -84.7168 156.201 -90.5762 145.312 -90.5762 L 32.666 -90.5762 C 21.7773 -90.5762 16.0645 -84.8633 16.0645 -73.9746 L 16.0645 3.75977 C 16.0645 14.6484 21.7773 20.3613 32.666 20.3613 Z M 32.8125 16.4062 C 24.4141 16.4062 19.9707 12.0117 19.9707 3.56445 L 19.9707 -73.7793 C 19.9707 -82.2754 24.4141 -86.6699 32.8125 -86.6699 L 145.166 -86.6699 C 153.32 -86.6699 158.008 -82.2754 158.008 -73.7793 L 158.008 3.56445 C 158.008 12.0117 153.32 16.4062 145.166 16.4062 Z M 40.8203 -25.7324 C 40.8203 -24.6582 41.6016 -23.877 42.6758 -23.877 C 43.1152 -23.877 43.6035 -24.0723 43.9941 -24.4629 L 71.6309 -52.0996 L 80.4688 -61.1816 L 80.127 -42.8711 L 80.127 -35.4492 C 80.127 -34.3262 80.8594 -33.5449 82.0312 -33.5449 C 83.1543 -33.5449 83.9355 -34.3262 83.9355 -35.4492 L 83.9355 -65.0879 C 83.9355 -66.2109 83.1543 -66.9922 81.9824 -66.9922 L 48.6328 -66.9922 C 47.4609 -66.9922 46.7285 -66.2109 46.7285 -65.0879 C 46.7285 -63.9648 47.5098 -63.1836 48.6328 -63.1836 L 56.0547 -63.1836 L 78.125 -63.623 L 69.043 -54.6875 L 41.4062 -27.0996 C 41.0156 -26.6602 40.8203 -26.1719 40.8203 -25.7324 Z M 140.82 -44.9707 C 140.82 -45.9961 139.99 -46.7773 138.965 -46.7773 C 138.477 -46.7773 138.037 -46.582 137.598 -46.1914 L 109.961 -18.5547 L 101.123 -9.47266 L 101.514 -27.7832 L 101.514 -35.2051 C 101.514 -36.377 100.732 -37.1094 99.6094 -37.1094 C 98.4375 -37.1094 97.7051 -36.377 97.7051 -35.2051 L 97.7051 -5.61523 C 97.7051 -4.44336 98.4863 -3.71094 99.6094 -3.71094 L 133.008 -3.71094 C 134.131 -3.71094 134.912 -4.44336 134.912 -5.61523 C 134.912 -6.73828 134.131 -7.4707 133.008 -7.4707 L 125.586 -7.4707 L 103.467 -7.08008 L 112.549 -15.9668 L 140.186 -43.6035 C 140.625 -43.9941 140.82 -44.4824 140.82 -44.9707 Z" stroke-linecap="round" />
</g>
</svg>